<!-- Generator: Adobe Illustrator 21.0.0, SVG Export Plug-In  -->
<svg version="1.1"
	 xmlns="http://www.w3.org/2000/svg" xmlns:xlink="http://www.w3.org/1999/xlink" xmlns:a="http://ns.adobe.com/AdobeSVGViewerExtensions/3.0/"
	 x="0px" y="0px" width="132px" height="132px" viewBox="0 0 132 132" style="enable-background:new 0 0 132 132;"
	 xml:space="preserve">
<style type="text/css">
	.st0{fill:#990000;}
	.st1{fill:#FFFFFF;}
</style>
<defs>
</defs>
<g>
	<rect class="st0" width="132" height="132"/>
	<g>
		<g>
			<path class="st1" d="M25.3,117.5h1.5V116c-0.4,0.1-0.9,0.1-1.3,0.1l-0.1-0.6c1.2-0.1,2.3-0.3,3.5-0.6l0.2,0.6
				c-0.4,0.1-0.9,0.2-1.5,0.3v1.6h1.4v0.7h-1.3c0.6,1.1,1.1,2,1.4,2.6l-0.5,0.4c-0.3-0.6-0.6-1.3-0.9-1.9v4.6h-0.7v-4.2
				c-0.3,0.9-0.7,1.7-1.2,2.4l-0.4-0.6c0.8-1.1,1.3-2.2,1.6-3.3h-1.4V117.5z M31.1,115h0.8v2.5c0,2.5,0.9,4.4,2.6,5.4l-0.4,0.7
				c-0.6-0.4-1.1-0.9-1.5-1.5s-0.8-1.4-1-2.2c-0.2,0.8-0.6,1.5-1.1,2.2c-0.5,0.6-1,1.2-1.6,1.5l-0.4-0.7c1.8-1.1,2.7-2.9,2.7-5.4
				V115z M28.8,119.6c0.4-1,0.7-2.1,0.9-3.3l0.7,0.1c-0.1,1.2-0.4,2.4-0.9,3.4L28.8,119.6z M33.2,119.6l-0.7-0.3
				c0.5-0.9,0.8-2,1-3.1l0.7,0.1C34.1,117.6,33.7,118.6,33.2,119.6z"/>
			<path class="st1" d="M36.1,115.4h8v8.1h-0.8v-0.6h-6.5v0.6h-0.8V115.4z M39.7,116.1h-2.9v2.6h2.9V116.1z M36.8,119.4v2.9h2.9
				v-2.9H36.8z M40.5,116.1v2.6h2.9v-2.6H40.5z M40.5,122.3h2.9v-2.9h-2.9V122.3z"/>
			<path class="st1" d="M54.8,120.7v0.6h-2.5c0.9,0.6,1.8,1.2,2.6,1.9l-0.4,0.5c-0.8-0.6-1.7-1.3-2.7-2l0.3-0.4h-1.2v2.4H50v-2.4
				h-1.5l0.4,0.4c-0.7,0.7-1.6,1.4-2.6,1.9l-0.4-0.5c0.9-0.5,1.8-1.1,2.5-1.8h-2v-5.7h0.8v5H54.8z M48.7,120.1H48v-4.9h5.9v4.9H48.7
				z M48.7,116.6h4.4v-0.8h-4.4V116.6z M48.7,117.2v0.9h4.4v-0.9H48.7z M48.7,118.6v0.9h4.4v-0.9H48.7z"/>
			<path class="st1" d="M59.8,115.6c-0.7,1.5-1.8,2.8-3.1,3.9l-0.5-0.6c1.3-1,2.3-2.3,3-3.6L59.8,115.6z M62.1,120l0.7-0.3
				c0.8,1.2,1.6,2.5,2.3,3.7l-0.7,0.3c-0.4-0.6-0.5-0.9-0.5-1c-2.5,0.4-5,0.6-7.3,0.7l0-0.7c0.7,0,1.2,0,1.5-0.1
				c0.6-1.5,1.2-3.1,1.7-4.8l0.8,0.2c-0.5,1.7-1,3.2-1.6,4.5c1.4-0.1,2.9-0.3,4.6-0.5C63.1,121.5,62.7,120.8,62.1,120z M61.5,115.6
				l0.7-0.3c0.7,1.4,1.7,2.6,3,3.6l-0.5,0.6C63.3,118.4,62.3,117.1,61.5,115.6z"/>
			<path class="st1" d="M72.9,115.4l0.4-0.6c0.6,0.3,1.2,0.6,1.7,1l-0.3,0.5h0.7v0.7h-2.7c0.1,0.8,0.2,1.5,0.3,2.2
				c0.1,0.7,0.3,1.2,0.4,1.6c0.1,0.4,0.3,0.8,0.4,1.1c0.1,0.3,0.3,0.5,0.4,0.6c0.1,0.1,0.2,0.2,0.2,0.2c0.2,0,0.4-0.6,0.5-1.9
				l0.7,0.2c-0.2,1.7-0.5,2.5-1.2,2.5c-0.2,0-0.3-0.1-0.5-0.2s-0.4-0.4-0.6-0.7c-0.2-0.3-0.4-0.8-0.6-1.3s-0.4-1.1-0.5-1.9
				c-0.1-0.8-0.3-1.6-0.3-2.6h-5.3v-0.7h5.3c0-0.5,0-1,0-1.5h0.7c0,0.6,0,1.1,0,1.5h1.9C74,116,73.5,115.7,72.9,115.4z M71.6,118.4
				v0.6h-1.9v3.2c1-0.2,1.7-0.4,2.2-0.5l0.1,0.6c-1.2,0.4-2.9,0.8-5.1,1.1l-0.1-0.7c0.8-0.1,1.5-0.2,2.1-0.3V119h-1.8v-0.6H71.6z"/>
			<path class="st1" d="M76.9,117h1.7v-1.8h0.7v1.8H83v-1.8h0.8v1.8h1.7v0.7h-1.7v0.6c0,1.7-0.3,2.8-1,3.6c-0.7,0.7-1.9,1.2-3.6,1.3
				l-0.1-0.7c1.5-0.2,2.6-0.5,3.1-1.1s0.8-1.6,0.8-3.1v-0.6h-3.6v2.3h-0.7v-2.3h-1.7V117z"/>
			<path class="st1" d="M87.5,119.2c1.4-0.2,2.8-0.6,4.2-1.3c1.4-0.7,2.4-1.5,3.3-2.4l0.5,0.5c-0.8,0.9-1.8,1.6-3,2.2v5.1h-0.8v-4.7
				c-1.3,0.6-2.7,1-4,1.2L87.5,119.2z"/>
			<path class="st1" d="M100.2,115.3v2.9c1.8,0.4,3.7,1,5.5,1.7l-0.2,0.7c-1.8-0.7-3.6-1.2-5.3-1.7v4.4h-0.8v-8.1H100.2z"/>
		</g>
		<g>
			<path class="st1" d="M90.1,99.8c0,2.2,0,4.1,0.1,6.2c0,0.9,0,1.4,0,1.9c0,1.2-0.3,1.7-1,1.7c-0.9,0-1.1-0.6-1.1-2
				c0-1.9,0.1-4.4,0.1-7c0.1-2.6,0.1-6.4,0.1-8c0-1.5-0.7-2.5-1.9-3.5c-0.2-0.2-0.3-0.4-0.3-0.6c0-0.4,0.3-0.6,0.7-0.6
				c0.2,0,0.3,0,0.5,0.1c1.7,1,2.9,2.3,2.9,4.2c0,0.5,0,1.8-0.1,3.2c1.7,0.6,4.1,1.6,5.6,3.3c0.4,0.5,0.6,1,0.6,1.5
				c0,0.7-0.5,1.2-1.1,1.2c-0.7,0-1-0.3-1.3-0.8c-0.9-1.4-2.4-2.8-3.9-3.7C90.2,97.8,90.1,98.9,90.1,99.8z"/>
		</g>
		<g>
			<path class="st1" d="M71.8,96.2c-0.2-0.1-0.3-0.3-0.3-0.5c0-0.3,0.3-0.5,0.6-0.5c0.2,0,0.3,0,0.5,0.1c1.4,0.7,2.2,1.4,2.2,2.1
				c0,0.4-0.1,0.6-0.2,1c-1.5,3.1-2.7,4.8-4.9,6.7c-2,1.8-4.6,3.4-7,4.2c-0.1,0-0.2,0.1-0.3,0.1c-0.4,0-0.6-0.3-0.6-0.6
				c0-0.3,0.1-0.5,0.4-0.6c5.2-2.7,8.5-6,9.9-9c0.4-0.7,0.6-1.3,0.6-1.8C72.8,97,72.5,96.8,71.8,96.2z M64.4,100.7
				c-0.5-1.1-1.1-1.9-1.9-2.8c-0.2-0.2-0.2-0.4-0.2-0.5c0-0.3,0.2-0.5,0.5-0.5c0.2,0,0.4,0.1,0.5,0.2c1.1,0.7,2.1,1.7,2.8,2.9
				c0.2,0.4,0.3,0.7,0.3,1c0,0.6-0.4,0.9-0.9,0.9C65,101.9,64.7,101.5,64.4,100.7z M68.2,99.3c-0.4-1-0.9-1.6-1.3-2.2
				c-0.1-0.1-0.1-0.3-0.1-0.5c0-0.2,0.2-0.5,0.6-0.5c0.1,0,0.3,0.1,0.4,0.2c0.8,0.5,1.6,1.4,2,2c0.1,0.2,0.2,0.4,0.2,0.7
				c0,0.5-0.4,0.9-0.9,0.9C68.7,99.9,68.4,99.8,68.2,99.3z"/>
		</g>
		<g>
			<path class="st1" d="M45.2,100.4c0,1,0,2.9,0,3.9c0,1.7,0,2.8,0,4.2c0,1.3-0.3,1.7-0.9,1.7c-0.7,0-1.1-0.5-1.1-2
				c0-0.6,0.1-1.9,0.1-3.6c0-0.8,0.1-2.3,0.1-3.4c0-0.5-0.1-0.9-0.2-1.2c-3.1,2.7-6.5,4.8-10.2,6.4c-0.1,0.1-0.3,0.1-0.4,0.1
				c-0.4,0-0.6-0.3-0.6-0.6c0-0.3,0.1-0.5,0.5-0.7c4.8-2.4,10.4-6.3,13.5-10.9c-1.8,0.4-3.5,0.8-5.4,1.3c-1.4,0.4-2,0.5-2.4,0.5
				c-0.6,0-1.1-0.6-1.1-1.2c0-0.5,0.2-0.8,0.4-1c0.3,0.2,0.8,0.3,1.2,0.3c0.3,0,0.8,0,1.8-0.2c1.6-0.3,3.4-0.6,5.6-1.1
				c0.4-0.4,0.7-0.5,1.2-0.5c0.7,0,1.2,0.5,1.2,1.3c0,0.8-0.6,1.6-1.9,2.9c-0.8,0.8-1.5,1.5-2.3,2.3C45,99.5,45.2,99.9,45.2,100.4z
				 M44.7,90.7c-0.8-1.1-1.8-2-2.9-2.8c-0.2-0.1-0.3-0.3-0.3-0.5c0-0.3,0.3-0.6,0.6-0.6c0.1,0,0.1,0,0.2,0c1.5,0.5,3.3,1.7,4,2.7
				c0.1,0.2,0.2,0.4,0.2,0.6c0,0.6-0.4,1.1-0.9,1.1C45.2,91.2,45,91.1,44.7,90.7z M50.6,103.9c-1-1.5-2.2-2.8-3.6-3.8
				c-0.2-0.2-0.3-0.4-0.3-0.6c0-0.3,0.3-0.6,0.6-0.6c0.1,0,0.2,0,0.4,0.1c1.9,0.8,3.4,2,4.5,3.4c0.3,0.4,0.5,0.8,0.5,1.2
				c0,0.6-0.3,1.1-1,1.1C51.2,104.6,51,104.4,50.6,103.9z"/>
		</g>
		<g>
			<path class="st1" d="M96.4,66.1c-1.4,0.4-2.7,0.7-4,0.9c-0.6,1.7-1.2,3.4-1.8,4.8c-1.4,3.7-4.5,9.8-5,10.8
				c-0.2,0.4-0.5,0.5-0.8,0.5c-0.5,0-0.9-0.3-0.9-0.8c0-0.2,0.1-0.3,0.2-0.5c3.7-7.3,5.2-10.4,6.3-13.7c0.1-0.3,0.2-0.5,0.3-0.9
				c-0.3,0-0.6,0.1-0.9,0.1c-0.2,0-0.5,0-0.8,0c-1.9,0-3.4-0.8-4-2c-0.1-0.1-0.1-0.2-0.1-0.3c0-0.3,0.3-0.5,0.5-0.5
				c0.2,0,0.3,0.1,0.4,0.2c0.4,0.6,1.2,1.1,2.7,1.1c0.3,0,0.6,0,1-0.1c0.5-0.1,0.9-0.2,1.5-0.2c0.8-2.6,1.4-5.1,1.6-5.8
				c0.2-0.5,0.5-0.7,0.8-0.7c0.5,0,0.9,0.4,0.9,0.9c0,0.1,0,0.1,0,0.2c-0.3,1.2-0.8,3-1.5,5c1.1-0.2,2.1-0.5,3-0.8
				c0.1,0,0.2-0.1,0.3-0.1c0.5,0,0.8,0.4,0.8,0.9C97.1,65.6,96.9,66,96.4,66.1z M105.8,83.2c-0.6,0-1.2,0.1-1.9,0.1
				c-6.2,0-10.4-2-10.4-6.3v-0.1c0-2.9,3-5.2,5.9-6.9c0.2-0.2,0.4-0.4,0.4-0.5s-0.1-0.3-0.3-0.4c-0.5-0.3-1.1-0.5-1.9-0.6
				c-0.3,0-0.4-0.3-0.4-0.5c0-0.3,0.2-0.5,0.6-0.5h0c1.3,0,3,0.3,4.5,0.7c0.5,0.1,0.8,0.5,0.8,0.9c0,0.3-0.2,0.7-0.6,0.9
				c-3.9,2-7.7,3.8-7.7,7V77c0,1.6,1.1,2.7,2.7,3.5c1.6,0.8,3.8,1.1,5.7,1.1c0.9,0,1.6-0.1,2.4-0.2c0.1,0,0.1,0,0.2,0
				c0.6,0,0.9,0.5,0.9,0.9C106.8,82.8,106.5,83.2,105.8,83.2z"/>
		</g>
		<g>
			<path class="st1" d="M75.8,69.2c-0.7,0.4-2.1,1-3.6,1.6c0.7,1.4,1.3,2.7,1.9,3.8c1.2,1.8-0.1,2.7-1,2.4c-1.1-0.4-3.7-1.1-5.5-1.3
				c-0.3-0.1-0.4-0.3-0.4-0.5c0-0.3,0.2-0.5,0.6-0.5h0.1c0.8,0,2.7,0.2,3.6,0.3h0.1c0.3,0,0.5-0.1,0.5-0.4c0-0.1,0-0.2-0.1-0.3
				c-0.2-0.3-0.7-1.4-1.3-2.9c-0.6,0.2-1.3,0.4-2,0.5c-0.9,0.2-1.7,0.3-2.5,0.3h0c-2.1,0-3.5-0.8-4.2-2.2c-0.1-0.3-0.2-0.6-0.2-1
				c0-1,0.5-2.1,1.1-2.9c-1.3,0-2.8-0.4-4-1.6c-0.1-0.1-0.2-0.2-0.2-0.4c0-0.2,0.2-0.5,0.5-0.5c0.2,0,0.3,0.1,0.5,0.2
				c0.5,0.3,1.6,0.7,3.1,0.7c0.7,0,1.4-0.1,2.2-0.3c0.5-0.2,1.2-0.4,2-0.8c-0.7-1.7-1.3-3.2-1.6-3.9c-0.1-0.2-0.1-0.3-0.1-0.4
				c0-0.5,0.4-0.8,0.9-0.8c0.3,0,0.6,0.2,0.8,0.5c0.4,0.9,1,2.4,1.6,3.9c1.4-0.7,2.7-1.4,3.4-1.8c0.2-0.1,0.4-0.2,0.5-0.2
				c0.5,0,0.9,0.4,0.9,0.9c0,0.3-0.2,0.6-0.5,0.8c-0.6,0.4-2.1,1.1-3.7,1.9c0.3,0.8,0.6,1.6,0.9,2.2c0.4,0.8,0.8,1.8,1.3,2.7
				c1.3-0.5,2.5-1.1,3.5-1.6c0.2-0.1,0.4-0.1,0.5-0.1c0.5,0,0.8,0.4,0.8,0.8C76.4,68.6,76.2,69,75.8,69.2z M72.3,83.3
				c-1.1,0.1-2,0.1-2.9,0.1c-2.7,0-4.4-0.4-5.9-1.2c-1.8-0.9-3.2-2.6-3.2-4.5c0-0.3,0-0.6,0.1-0.9c0.1-0.3,0.3-0.5,0.6-0.5
				s0.5,0.2,0.5,0.5v0.2c0,0.1,0,0.2,0,0.4c0,1.2,1.2,2.8,3.3,3.7c1.2,0.5,2.6,0.7,3.9,0.7c1.3,0,2.5-0.1,3.5-0.2h0.1
				c0.7,0,1,0.5,1,0.9S72.9,83.3,72.3,83.3z M68.6,66.8c-0.3-0.6-0.6-1.3-0.9-1.9c-1,0.4-2,0.7-2.8,0.9h-0.1c0,0.1-0.1,0.1-0.1,0.1
				c-0.6,0.4-1.5,1.6-1.5,2.7c0,0.3,0.1,0.5,0.2,0.8c0.4,0.8,1.4,1.2,2.7,1.2c0.7,0,1.5-0.1,2.4-0.3c0.5-0.1,0.9-0.3,1.4-0.4
				C69.6,68.8,69.1,67.8,68.6,66.8z"/>
		</g>
		<g>
			<path class="st1" d="M48.4,79.9c-2.6,2.2-5.3,3-6.6,3.2c0,0-0.1,0-0.1,0c-0.1,0-0.2-0.1-0.3-0.2c-0.1-0.1-0.1-0.2-0.1-0.3
				c0-0.2,0.2-0.5,0.5-0.6c2.2-0.7,4-1.6,6-3.7c1.1-1.1,1.8-2.6,1.8-4.2c0-1.4-0.6-2.8-2-4.1c-1.4-1.2-3.2-1.7-5.1-1.7
				c-0.2,0-0.5,0-0.7,0c0,0.3,0.1,0.6,0.1,1c0,0.7-0.1,1.4-0.2,2.2c-0.4,2.7-1.2,4.5-3.1,6.5c-0.1,0.2-0.3,0.3-0.4,0.5v1.7
				c0,0.6-0.4,0.9-0.9,0.9c-0.2,0-0.4-0.1-0.5-0.2c-0.2-0.2-0.2-0.4-0.2-0.7v-0.3c-1.2,0.8-2.7,1.4-3.9,1.4c-0.7,0-1.3-0.2-1.9-0.6
				c-0.8-0.7-1.1-1.7-1.1-2.9c0-1.8,0.9-4,2.5-5.8c1.4-1.5,2.8-2.7,4.4-3.5v-3.4c-0.5,0-0.9,0.1-1.3,0.1c-0.8,0-1.5-0.1-2.1-0.4
				c-1-0.6-1.5-1.2-1.7-2.1c0-0.1,0-0.1,0-0.2c0-0.3,0.2-0.5,0.4-0.5c0.2,0,0.3,0.1,0.5,0.3c0.7,1,1.6,1.6,3.1,1.6
				c0.3,0,0.7,0,1.1-0.1v-4.8c0-0.6,0.5-0.9,0.9-0.9c0.3,0,0.5,0.1,0.7,0.4c0.9,1.5,2.6,3.1,5.2,3.5c0.5,0.1,0.9,0.5,0.9,0.9
				c0,0.4-0.3,0.7-0.8,0.9c-1.2,0.4-3.5,1-5.3,1.3v2.9c0.6-0.2,1.3-0.5,2-0.6c-0.1-0.3-0.2-0.6-0.3-0.9c-0.1-0.1-0.1-0.2-0.1-0.3
				c0-0.3,0.2-0.5,0.5-0.5c0.1,0,0.3,0.1,0.4,0.2c0.3,0.4,0.6,0.8,0.8,1.2c0.4-0.1,0.9-0.1,1.3-0.1c3,0,5.8,1.4,7.5,3.9
				c0.8,1.2,1.2,2.4,1.2,3.7C51.2,76.4,50.2,78.5,48.4,79.9z M36.3,70.3c-0.2,0.1-0.4,0.2-0.5,0.3c-3.9,3.1-4.9,5.3-4.9,7.4
				c0,0.7,0.2,1.2,0.7,1.5c0.2,0.2,0.5,0.2,0.8,0.2c1.1,0,2.6-0.9,3.9-2V70.3z M38.3,61.2C38.2,61,38,61,38,61.2v2.2
				c0.8-0.2,1.5-0.4,2.1-0.6c0.2-0.1,0.2-0.2,0.1-0.3C39.4,62.1,38.8,61.7,38.3,61.2z M40.3,68.7c-0.8,0.2-1.6,0.4-2.3,0.8v6.8
				c0.2-0.3,0.5-0.6,0.6-0.9c0.9-1.4,1.7-3.8,1.7-6.1V68.7z"/>
		</g>
		<g>
			<g>
				<path class="st1" d="M61.3,53.6c0-0.1-0.1-0.2-0.3-0.2c-5.2-0.3-10.1-1.8-14.1-3.9s-7-4.8-8.4-7.5H60c0.3,0,0.5-0.1,0.7-0.3
					c0.1-0.2,0.2-0.4,0.2-0.5c0-0.5-0.9-1.3-1.8-2c-0.9-0.7-2-1.4-2.3-1.5c-0.1,0-0.1-0.1-0.2-0.1s-0.1,0-0.2,0c-0.1,0-0.1,0-0.1,0
					c0,0-0.1,0.1-0.1,0.1c-0.3,0.3-0.8,0.9-1.2,1.4c-0.4,0.5-0.8,1.1-0.9,1.3H38c0-0.3,0.1-0.6,0.1-0.9c0-0.3,0-0.6,0-1
					c0-0.2,0-0.4,0-0.6c0-0.2,0-0.4,0-0.8c0.5-0.1,0.9-0.3,1.1-0.4c0.3-0.2,0.4-0.3,0.4-0.5v-0.1c0-0.2-0.1-0.4-0.2-0.6
					c-0.1-0.2-0.3-0.4-0.6-0.4c-0.2-0.1-0.8-0.1-1.6-0.2c-0.7-0.1-1.6-0.1-2.5-0.1c0.2,0.3,0.2,1,0.3,1.7c0,0.7,0,1.3,0,1.7
					c0,0.4,0,0.7,0,1.1c0,0.4-0.1,0.7-0.1,1.1h-5.3c-2.5,0-5.9-0.1-9-0.2c-3.1-0.1-5.8-0.2-6.9-0.3c0,0.4,0.1,0.8,0.3,1.3
					s0.4,0.9,0.7,1.1c1.4-0.2,4.1-0.3,6.8-0.3s5.4-0.1,6.7-0.1h6.4c-1.2,4.4-4.4,7.5-8.4,9.8c-4,2.3-8.8,3.7-13.2,4.6
					c-0.1,0-0.1,0.1-0.2,0.1c0,0.1,0,0.1,0,0.2c0,0.2,0.1,0.4,0.2,0.6c0.2,0.2,0.4,0.3,0.6,0.3h0.1c5-0.8,10.3-2.2,14.6-4.4
					c4.3-2.3,7.7-5.5,9.1-10.1c1.3,2.7,4.2,5.8,7.7,8.3s7.9,4.7,12.4,5.3h0.2c0.1,0,0.1,0,0.2-0.1c0.1,0,0.2-0.1,0.3-0.2
					c0.3-0.3,0.7-0.7,1-0.9s0.8-0.5,1.2-0.6c0.1-0.1,0.2-0.1,0.3-0.1c0.1,0,0.2-0.1,0.3-0.1c0.1,0,0.2-0.1,0.2-0.3
					c0.1-0.1,0.1-0.3,0.1-0.5S61.4,53.7,61.3,53.6z M41.2,17c0.8,0.6,1.9,0.5,3.1,0c1.1-0.5,2.3-1.5,3.2-2.9
					c0.9-1.4,1.4-2.8,1.5-4.1c0.1-1.3-0.3-2.3-1.1-2.9c-0.1-0.1-0.3-0.2-0.5-0.2c-0.2,0-0.5,0.1-0.8,0.5c-0.5,0.6-1,0.9-1.3,1.1
					S44.4,8.6,44,8.6c-0.3,0-0.4-0.1-0.6-0.2s-0.3-0.1-0.5,0.1c-0.2,0.2-0.5,0.5-0.7,0.7c-0.2,0.3-0.4,0.5-0.6,0.8
					c-0.9,1.4-1.4,2.8-1.5,4.1C40,15.4,40.4,16.4,41.2,17z M29.8,32c-2.5,0-5.9-0.1-9-0.2c-3.1-0.1-5.8-0.2-6.9-0.3
					c0,0.3,0.1,0.8,0.3,1.3c0.2,0.4,0.4,0.9,0.7,1.1c1.4-0.2,4.1-0.3,6.8-0.3s5.4-0.1,6.7-0.1h31.4c0.3,0,0.5-0.1,0.7-0.3
					c0.1-0.2,0.2-0.4,0.2-0.5c0-0.4-0.8-1.2-1.7-1.9s-1.9-1.4-2.4-1.6c-0.1,0-0.1-0.1-0.2-0.1c-0.1,0-0.1,0-0.2,0
					c-0.1,0-0.1,0-0.1,0c0,0-0.1,0.1-0.1,0.1c-0.4,0.3-0.8,0.9-1.2,1.4s-0.7,1-0.9,1.3H38.2v-6.1h15.6c0.3,0,0.5-0.1,0.7-0.2
					c0.1-0.1,0.2-0.3,0.2-0.5c0-0.4-0.8-1.2-1.8-2c-0.9-0.7-2-1.4-2.4-1.4c-0.1,0-0.1,0-0.2,0s-0.1,0-0.2,0.1
					c-0.4,0.4-0.8,0.9-1.2,1.4s-0.7,0.9-0.9,1.1h-9.8l0.1-5.3h18.4c0.3,0,0.5-0.1,0.7-0.2c0.1-0.1,0.2-0.3,0.2-0.5
					c0-0.3-0.7-1.1-1.6-1.8c-0.9-0.7-1.9-1.3-2.3-1.5c-0.1,0-0.1,0-0.2,0c0,0-0.1,0-0.1,0c-0.1,0-0.1,0-0.2,0c-0.1,0-0.1,0-0.2,0.1
					c-0.3,0.3-0.7,0.8-1.1,1.2c-0.4,0.5-0.8,0.9-1,1.2H32.3c0.9-1.1,1.1-3.1-1.3-5.6c-3.1-3.3-5.9-3.3-6.3-4.8
					c-0.9-2.7,0,4.3,1.7,7.7c0.6,1.2,1.2,2.1,1.9,2.6c-1.6,0-3.6-0.1-5.5-0.1c-2.6-0.1-5-0.2-6.5-0.4c0,0.3,0.1,0.8,0.3,1.3
					c0.2,0.5,0.4,0.9,0.6,1.1c1.4-0.2,3.4-0.3,5.4-0.3c2-0.1,4.1-0.1,5.7-0.1h7.1v5.3h-2.8c-1.8,0-4.4,0-6.9-0.1
					c-2.5-0.1-5-0.2-6.4-0.4c0,0.3,0.1,0.8,0.3,1.3c0.2,0.5,0.4,0.9,0.6,1.1c1.4-0.2,3.4-0.3,5.4-0.3c2-0.1,4.1-0.1,5.7-0.1h4.2V32
					H29.8z"/>
			</g>
		</g>
		<path class="st1" d="M110.5,44.1c0,0-0.1,0-0.2,0.1c-0.5,0.4-1.2,1.1-1.5,1.6h-5.7v-8.5h7.9c0.5,0,0.7-0.3,0.7-0.6
			c0-0.6-2.7-2.3-2.9-2.3c-0.3,0-1.2,1-1.7,1.8h-4V30h9.1c0.6,0,0.8-0.3,0.8-0.6c0-0.5-2.7-2.4-3-2.4c-0.3,0-1.4,1.3-1.8,1.9h-8.4
			c0,0-5.9-0.2-7.3-0.3c0.1,0.5,0.4,1.3,0.6,1.6c1.2-0.2,6.7-0.2,6.7-0.2h1.4v6.2h-1.4c0,0-4.8-0.1-6.1-0.2c0.1,0.5,0.4,1.3,0.6,1.6
			c1.2-0.2,5.6-0.2,5.6-0.2h1.4v8.5h-1.9c0,0-5.9-0.1-7.3-0.2c0.1,0.5,0.4,1.3,0.6,1.6c1.2-0.2,6.7-0.2,6.7-0.2h13.4
			c0.5,0,0.7-0.3,0.7-0.6C113.5,45.9,110.9,44.1,110.5,44.1z M106,38c-0.3,0-0.5,0.1-0.5,0.4c0,0.1,0,0.2,0.1,0.3
			c1.4,1.6,2.1,2.8,2.5,4.3c0.2,0.6,0.5,1,0.9,1c0.7,0,1.1-1.3,1.1-1.7C110.1,40.8,106.5,38,106,38z M115.6,24.1l0,17.5
			c0,0.6,0,8.6,0,10.1H89.7c0-1.7,0-6.1,0-9.1V24.1H115.6z M116.7,21.8c0,0-0.1,0-0.2,0c0,0-0.1,0-0.2,0.1c-0.3,0.3-0.7,0.7-1,1.2
			H90.1c-0.8-0.4-2.1-1.1-2.9-1.3c0.4,2.2,0.4,5.1,0.4,7.1l0,13.9c0,3-0.2,8.1-0.2,8.6c-0.1,1.3-0.2,2.9-0.2,3.5
			c0,0.5,0.2,0.9,0.9,0.9c1,0,1.5-0.4,1.5-1.2c0-0.2,0-1,0-1.7h25.8c0,0.5,0,1,0,1.4c0,0.6,0.3,0.9,1,0.9c1.3,0,1.4-0.8,1.4-1
			c0-0.1-0.1-2.6-0.1-3c0-1.4-0.1-9.6-0.1-10.1V24.7c0.4-0.1,1.2-0.4,1.2-0.9C118.8,23.2,117.2,22,116.7,21.8z"/>
		<path class="st1" d="M72.3,34.7c0,0.1,0,0.2,0,0.4c0,3.9-3.8,11.5-5.3,11.5c-0.8,0-2.1-2.1-2.1-3.9c0-2.1,2-7,7.2-8.2l0.1,0
			C72.3,34.6,72.3,34.6,72.3,34.7z M82.4,41.3c0-4-3.2-7.7-8.5-7.7c-6.3,0-10.2,5.9-10.2,9.5c0,2.4,1.8,5.1,3.2,5.1
			c3.1,0,6.5-9.4,6.5-12c0-0.6-0.1-1.3-0.4-1.8c0.4,0,0.7,0,1.1,0c4.4,0.1,6.7,3.2,6.7,6.6c0,4.2-3.4,7.7-8.8,8.8
			c-0.3,0-0.4,0.2-0.4,0.3c0,0.2,0.2,0.4,0.4,0.4h0C79.7,49.4,82.4,45,82.4,41.3z"/>
	</g>
</g>
</svg>
