<?xml version="1.0" encoding="utf-8"?>
<!-- Generator: Adobe Illustrator 24.1.1, SVG Export Plug-In . SVG Version: 6.00 Build 0)  -->
<svg version="1.1" id="レイヤー_1" xmlns="http://www.w3.org/2000/svg" xmlns:xlink="http://www.w3.org/1999/xlink" x="0px"
	 y="0px" viewBox="0 0 300 90" style="enable-background:new 0 0 300 90;" xml:space="preserve">
<style type="text/css">
	.st0{fill:#2A7053;}
</style>
<g id="レイヤー_2_1_">
	<g id="レイヤー_1-2">
		<path class="st0" d="M60.42,54.43c-1.72,6.67-13.5,21.74-16.24-20.91h-16.9C25.99,60.68,10.73,83.41,3,86h115.65
			C107.09,73.06,84.03,53.46,102.2,9.87C84.7,20.02,71.72,14.99,59.48,5v38.79c21.39-16.89,24.96-9.45,24.96-0.35
			s-4.3,16.24-8.59,18.17c-2.94,1.3-6.06-2.58-7.73-7.18H60.42z"/>
	</g>
</g>
<g>
	<path class="st0" d="M171.76,50.33V54h-44.6v-3.67h19.75v-3.16h-14.8V43.7h14.8v-2.86h-16.64v-3.67h16.64V34.1h4.8v3.06h17.4v3.67
		h-17.4v2.86h15.26v3.47h-15.26v3.16H171.76z M165.33,76.1c0,2.35-0.61,3.47-2.4,4.08c-1.84,0.61-4.69,0.61-8.88,0.61
		c-0.2-1.12-0.87-2.76-1.43-3.83c2.81,0.1,5.97,0.1,6.74,0.1c0.87-0.05,1.12-0.26,1.12-1.02v-3.22h-21.79V81H134V56.71h31.33V76.1z
		 M138.69,60.28v3.01h21.79v-3.01H138.69z M160.48,69.62v-3.06h-21.79v3.06H160.48z"/>
	<path class="st0" d="M194.16,65.74c1.99,1.33,6.07,4.13,7.14,4.95l-2.81,3.57c-0.87-0.97-2.65-2.6-4.34-4.13v10.82h-4.44V69.01
		c-2.19,3.88-4.95,7.3-8.06,9.34c-0.41-1.28-1.38-3.11-2.09-4.34c3.16-2.04,6.23-5.51,8.32-9.24h-7.14v-4.18h8.98v-5.77h4.44v5.77
		h7.09v4.18h-7.09V65.74z M200.89,45.02c-4.29,4.9-10.36,8.98-16.53,11.18c-0.66-1.07-2.04-2.81-2.96-3.62
		c5.56-1.74,11.23-5,15.16-8.88h-13.06v-4.18h17.4V34h4.75v5.51h18.12v4.18h-13.78c4.13,3.73,10.1,6.84,15.92,8.42
		c-1.02,0.87-2.35,2.76-3.06,3.88c-6.33-2.19-12.76-6.23-17.2-11.13v11.58h-4.75V45.02z M218.35,64.77
		c2.5,4.08,6.07,8.01,9.44,10.21c-1.02,0.82-2.6,2.55-3.37,3.73c-2.96-2.5-6.02-6.58-8.37-10.97v13.22h-4.49V67.99
		c-2.5,4.54-5.77,8.47-9.44,10.87c-0.66-1.07-2.04-2.65-2.96-3.47c3.83-2.14,7.45-6.17,9.9-10.61h-5.92v-4.18h8.42v-5.77h4.49v5.77
		h10.41v4.18H218.35z"/>
	<path class="st0" d="M250.64,70.39c-3.22,3.78-8.06,7.6-12.3,10c-0.97-0.92-2.7-2.4-3.83-3.11c4.18-2.14,8.83-5.72,11.18-8.73
		L250.64,70.39z M260.09,66.76V80.9h-5V66.76h-12.91v1.22h-4.75V38.69h4.75v23.88h38.07v4.18H260.09z M274.53,59.31h-27.86V35.99
		h27.86V59.31z M269.93,39.36h-18.78v3.37h18.78V39.36z M269.93,45.89h-18.78v3.42h18.78V45.89z M269.93,52.47h-18.78v3.47h18.78
		V52.47z M268.56,68.34c3.88,2.65,9.24,6.58,11.99,9.19l-4.29,2.91c-2.5-2.55-7.71-6.68-11.74-9.54L268.56,68.34z"/>
</g>
<g>
	<path class="st0" d="M117.86,22.82c0.42,1.3,1.43,2.18,3.81,2.18c2.28,0,3.03-0.77,3.03-1.77c0-1.06-0.66-1.68-3.72-2.2
		c-4.5-0.77-5.39-2.21-5.39-4.04c0-2.6,2.49-3.98,5.61-3.98c4.57,0,5.76,2.36,5.91,3.87h-2.86c-0.22-0.75-0.71-1.75-3.14-1.75
		c-1.69,0-2.63,0.55-2.63,1.58c0,0.89,0.56,1.38,3.27,1.85c5.06,0.89,5.86,2.44,5.86,4.37c0,2.29-1.8,4.17-6.19,4.17
		c-4.09,0-6-1.84-6.42-4.29H117.86z"/>
	<path class="st0" d="M134.64,15.6h-4.89v-2.3h12.62v2.3h-4.88v11.24h-2.85V15.6z"/>
	<path class="st0" d="M158.97,20.03c0,3.78-2.53,7.1-7.33,7.1c-4.52,0-7.17-3.14-7.17-7.1c0-3.73,2.78-7.02,7.3-7.02
		C156.35,13.01,158.97,16.31,158.97,20.03z M147.46,19.99c0,2.67,1.45,4.88,4.32,4.88c2.91,0,4.18-2.37,4.18-4.81
		c0-2.53-1.36-4.8-4.31-4.8C148.85,15.27,147.46,17.52,147.46,19.99z"/>
	<path class="st0" d="M162.7,13.3h6.8c3.22,0,5.13,1.64,5.13,4.17c0,2.73-1.92,4.34-5.14,4.34h-3.93v5.04h-2.86V13.3z M165.56,19.56
		h3.67c1.54,0,2.56-0.5,2.56-2.04c0-1.24-0.79-1.98-2.56-1.98h-3.67V19.56z"/>
	<path class="st0" d="M197.4,22.65c-0.67,2.36-2.5,4.48-6.62,4.48c-4.73,0-7.1-3.28-7.1-7.04s2.62-7.08,7.25-7.08
		c4.07,0,6.06,2.24,6.5,4.49h-2.89c-0.38-0.98-1.22-2.25-3.65-2.25c-2.72,0-4.22,2.05-4.22,4.73c0,2.68,1.42,4.92,4.23,4.92
		c2.13,0,3.03-0.86,3.62-2.25H197.4z"/>
	<path class="st0" d="M214.68,20.03c0,3.78-2.53,7.1-7.33,7.1c-4.52,0-7.17-3.14-7.17-7.1c0-3.73,2.78-7.02,7.3-7.02
		C212.07,13.01,214.68,16.31,214.68,20.03z M203.18,19.99c0,2.67,1.45,4.88,4.32,4.88c2.91,0,4.18-2.37,4.18-4.81
		c0-2.53-1.36-4.8-4.31-4.8C204.57,15.27,203.18,17.52,203.18,19.99z"/>
	<path class="st0" d="M222.33,26.84l-5.65-13.54h3.14l2.61,6.7c0.98,2.51,1.38,3.8,1.62,4.63h0.04c0.21-0.74,0.54-1.6,1.69-4.69
		l2.61-6.63h3.04l-5.74,13.54H222.33z"/>
	<path class="st0" d="M237.13,13.3v13.54h-2.84V13.3H237.13z"/>
	<path class="st0" d="M241.7,13.3h5.94c4.5,0,7.01,2.93,7.01,6.54c0,4.34-3.14,7-7.07,7h-5.88V13.3z M244.55,24.6h2.62
		c2.95,0,4.48-1.74,4.48-4.69c0-2.71-1.54-4.37-4.4-4.39h-2.7V24.6z"/>
	<path class="st0" d="M263.91,20.81v2.27h-6.31v-2.27H263.91z"/>
	<path class="st0" d="M269.29,26.84v-9.74c-0.68,0.39-2.06,0.75-2.66,0.79v-2.01c1.58-0.38,2.76-1.3,3.33-1.93h2v12.89H269.29z"/>
	<path class="st0" d="M278.34,23.7c0.31,0.8,0.94,1.37,2.21,1.37c2.24,0,2.64-2.29,2.74-4.06c-0.66,0.8-1.64,1.3-3.23,1.3
		c-2.89,0-4.58-1.75-4.58-4.08c0-2.59,1.89-4.53,5.14-4.53c3.41,0,5.39,2.14,5.39,6.22c0,3.52-1.1,7.19-5.47,7.19
		c-3.35,0-4.59-1.94-4.89-3.4H278.34z M278.25,18.06c0,1.26,0.81,2.2,2.43,2.2c1.48,0,2.37-0.79,2.37-2c0-1.06-0.56-2.46-2.46-2.46
		C278.96,15.79,278.25,16.87,278.25,18.06z"/>
</g>
</svg>
