<?xml version="1.0" encoding="utf-8"?>
<!-- Generator: Adobe Illustrator 24.1.0, SVG Export Plug-In . SVG Version: 6.00 Build 0)  -->
<svg version="1.1" id="Layer_1" xmlns="http://www.w3.org/2000/svg" xmlns:xlink="http://www.w3.org/1999/xlink" x="0px" y="0px"
	 viewBox="0 0 1125 396" style="enable-background:new 0 0 1125 396;" xml:space="preserve">
<style type="text/css">
	.st0{fill:#22B573;}
	.st1{fill:#333333;}
	.st2{fill-rule:evenodd;clip-rule:evenodd;fill:#231916;}
	.st3{fill:#231916;}
</style>
<g>
	<path class="st0" d="M455.2,335.2c-8.3-4.8-14.8-11.4-19.6-19.6c-4.8-8.3-7.1-17.5-7.1-27.5c0-10.1,2.4-19.2,7.2-27.5
		s11.4-14.8,19.7-19.5s17.5-7.1,27.6-7.1c15.7,0,28.6,5.7,38.8,17.1l-13.8,13.3c-6.7-7.9-15-11.8-24.9-11.8
		c-6.5,0-12.4,1.4-17.7,4.4c-5.3,2.9-9.5,7.1-12.6,12.5s-4.6,11.6-4.6,18.7c0,7.1,1.5,13.3,4.5,18.7c3,5.4,7.2,9.6,12.5,12.6
		c5.3,3,11.2,4.5,17.7,4.5c10.9,0,20.1-4.5,27.5-13.6l13.9,13.2c-5.1,6.2-11.2,10.9-18.2,14.1s-14.8,4.8-23.3,4.8
		C472.7,342.4,463.6,340,455.2,335.2z"/>
	<path class="st0" d="M561.1,335.5c-8.3-4.8-14.8-11.4-19.5-19.7c-4.7-8.3-7.1-17.5-7-27.4s2.4-19.1,7.2-27.4
		c4.8-8.3,11.3-14.8,19.6-19.6s17.5-7.1,27.7-7.1s19.4,2.4,27.6,7.2s14.8,11.4,19.5,19.7c4.7,8.3,7.1,17.5,7,27.4
		c0,10-2.4,19.1-7.2,27.4c-4.8,8.3-11.3,14.8-19.6,19.6c-8.3,4.8-17.5,7.1-27.7,7.1C578.6,342.7,569.4,340.3,561.1,335.5z
		 M606.3,319.7c5.3-3,9.5-7.2,12.6-12.6s4.6-11.6,4.6-18.6S622,275.4,619,270c-3-5.4-7.2-9.6-12.5-12.6c-5.3-3-11.2-4.5-17.5-4.5
		c-6.4,0-12.2,1.5-17.5,4.5c-5.3,3-9.5,7.2-12.5,12.6s-4.6,11.6-4.6,18.6s1.5,13.2,4.5,18.6c3,5.4,7.2,9.6,12.5,12.6
		c5.3,3,11.1,4.5,17.5,4.5C595.1,324.2,601,322.7,606.3,319.7z"/>
	<path class="st0" d="M647.6,236.7l21.2,0.1l21.3,62.7l3.7,13.2h1.2l4.1-13.2l22.5-62.6l21.2,0.1l-38.1,103.8l-20.6,0L647.6,236.7z"
		/>
	<path class="st0" d="M756.7,236.9l19.6,0.1L776,340.9l-19.6,0L756.7,236.9z"/>
	<path class="st0" d="M799.9,237l35.1,0.1c10.8,0,20.3,2.2,28.3,6.6c8,4.4,14.2,10.5,18.5,18.3c4.3,7.9,6.5,16.9,6.5,27.1
		c0,10.2-2.2,19.3-6.6,27.1c-4.4,7.8-10.6,13.9-18.6,18.2c-8,4.3-17.5,6.5-28.3,6.5l-35.1-0.1L799.9,237z M834,322.4
		c11.2,0,19.8-2.9,25.7-8.9c5.9-5.9,8.9-14.1,8.9-24.4c0-10.4-2.9-18.5-8.8-24.5c-5.9-6-14.4-9-25.7-9l-14.7,0l-0.2,66.7L834,322.4z
		"/>
	<path class="st0" d="M926.2,266.8l-15,10.8l-9.5-14.7l29.2-21l14.4,0l-0.2,99.2l-19,0L926.2,266.8z"/>
	<path class="st0" d="M982.4,333.6l20.5-28.6l-0.9-0.9c-2.2,1-4.7,1.4-7.6,1.4c-5,0-9.8-1.4-14.4-4.1c-4.6-2.8-8.3-6.6-11.1-11.5
		c-2.8-4.9-4.2-10.4-4.2-16.5c0-6.3,1.7-12.1,4.9-17.3c3.2-5.2,7.6-9.2,12.9-12.1c5.4-2.9,11.1-4.3,17.2-4.3c7,0,13.2,1.6,18.6,4.7
		s9.6,7.4,12.6,12.7c3,5.3,4.5,11,4.4,17.2s-1.2,11.9-3.6,17.3c-2.4,5.4-5.9,11.3-10.6,17.9l-24,34.1L982.4,333.6z M1011.7,285.2
		c3.3-3.1,5-7,5-11.7c0-4.7-1.7-8.5-5-11.6c-3.3-3.1-7.2-4.6-11.7-4.6c-4.6,0-8.5,1.5-11.8,4.5c-3.3,3-5,6.9-5,11.6
		c0,4.7,1.7,8.6,5,11.7s7.3,4.7,11.8,4.7C1004.5,289.8,1008.4,288.3,1011.7,285.2z"/>
</g>
<g>
	<path class="st1" d="M447,157.1c-4.3,4.1-6.8,6.1-14.2,11.9c-2.6-12.1-6.1-22.2-11.8-33.1c11.1-7.4,18.9-14.1,27.6-24.2
		c7.4-8.6,11.7-15.4,16.5-26l-21.2-0.1c-7.8,0-11.5,0.2-17,0.8l0.1-30.2c4.3,0.6,8.4,0.8,15.2,0.9l4.9,0l0-14.4c0-6-0.4-10.5-1-15.6
		l32.2,0.1c-0.6,4.7-1.1,10.1-1.1,15.8l0,14.2c5.8,0,8.6-0.2,10.5-0.6l13.5,17.5c-1.4,2.9-1.7,3.5-5,11.3
		c-4.3,10.9-9.5,20.9-16.3,31.6c3.5,4.3,10.4,10.5,16.2,14.2c-0.2-4.1-0.4-4.7-0.6-8c6.8,0.6,11.5,0.9,21.6,0.9l74.3,0.2
		c10.3,0,16.6-0.2,22-0.8c-0.6,7.2-0.9,12.3-0.9,22.8l-0.1,52.8c0,10.3,0.2,16.2,1,21.8l-31.4-0.1l0-7l-56.5-0.1l0,6.8l-30.4-0.1
		c0.8-6,1.1-11.5,1.1-21.8l0.1-52.6c0-2.7,0-3.7,0-8.2c-4.5,7.6-7,13.1-9.9,23.4c-4.7-4.7-6.1-6.4-9.4-10.3l-0.1,47.4
		c0,10.3,0.2,16.6,1,22.6l-32-0.1c0.6-7,1.1-15.2,1.1-23.2L447,157.1z M493.9,31.7c7.2,0.6,14.6,1.1,24.4,1.1l74.5,0.2
		c11.7,0,17.5-0.2,23.6-1l-0.1,28.3c-6.2-0.8-10.3-1.1-20.1-1.1L514,59.1c-9.9,0-14,0.2-20.1,1L493.9,31.7z M503.3,79.2
		c0-6.4-0.2-9.4-0.8-14.4c6.2,0.4,11.5,0.6,20.7,0.7l64.3,0.2c8.4,0,13.3-0.2,19.7-0.6c-0.6,4.7-0.8,7.6-0.9,14.2l-0.1,24.2
		c0,6.6,0.2,9.7,0.8,14.4c-5.7-0.4-10.9-0.6-20.3-0.7l-63.9-0.2c-9,0-14.8,0.2-20.5,0.6c0.6-4.7,0.8-8,0.9-14.2L503.3,79.2z
		 M526,188.9l14.6,0l0-9.7l-14.6,0L526,188.9z M526.1,157.5l14.6,0l0-9.7l-14.6,0L526.1,157.5z M532.2,96.1l43.5,0.1l0-8.6
		l-43.5-0.1L532.2,96.1z M567.7,189l14.6,0l0-9.7l-14.6,0L567.7,189z M567.8,157.6l14.6,0l0-9.7l-14.6,0L567.8,157.6z"/>
	<path class="st1" d="M685.4,166.7l-17.5,0c-6.4,0-8.6,0-15.8,0.4c0.6-6.6,0.9-12.7,0.9-23.6l0.2-81.5c0-7.6-0.2-14-1-20.7
		c6.2,0.6,10.3,0.8,18.9,0.9l26.5,0.1c3.1-5.7,4.7-10.1,6.2-15.8l34.7,1.9c-1.7,4.1-3.5,7.8-7.2,13.9l41.7,0.1
		c8.8,0,13.3-0.2,18.9-0.8c-0.8,5.5-1.1,10.9-1.1,18.5l-0.1,32.7c0,7.6,0.2,13.3,1,18.9c-6.2-0.4-11.3-0.6-18.7-0.7l-89.5-0.2l0,6.2
		l119.5,0.3c9.2,0,13.6-0.2,19.1-0.8l-0.1,23.2c-5.5-0.6-11.7-0.9-19.7-0.9l-118.9-0.3l0,6.2l119.7,0.3c6.8,0,10.9-0.2,14.8-0.6
		c-0.4,2.3-0.6,4.7-0.8,8.8c-0.9,16.2-3.4,35.3-5.2,43.5c-2.7,10.7-7.6,17.2-15.5,20.7c-4.9,2.2-11.9,3.3-21.4,3.2
		c-1.2,0-2.5,0-4.5,0c-1.4-14.6-2.6-20.1-6.5-29.2c4.7,0.6,8,1,10.5,1.1c4.9,0,7.2-1.2,8.2-4.9c1-4.3,2.1-11.7,2.5-20.5l-69.6-0.2
		l0,16.6l17.9,0l0-3.5c0-3.3-0.2-5.5-0.6-8.8l31.4,0.1c-0.6,3.1-0.8,8-0.9,12.9l0,10.5c0,8.6,0.2,11.3,0.8,17c-7-0.2-7-0.2-16.8-0.5
		c-3.5-0.2-3.5-0.2-10.7-0.2l-69-0.2l0,6.6l-31-0.1c0.8-5.7,1.1-10.5,1.1-17.9l0-15.8c0-5.1-0.2-9-0.8-12.5l31.4,0.1
		c-0.4,2.5-0.6,5.1-0.6,8.6l0,3.5l17.7,0L685.4,166.7z M683.8,93l76.4,0.2l0-7L683.8,86L683.8,93z M760.2,70.2l0-7L683.8,63l0,7
		L760.2,70.2z"/>
	<path class="st1" d="M947.6,196.8c0,12.1,0.4,19.3,1.2,25.5l-33.5-0.1c0.8-6.4,1.3-13.8,1.3-25.5l0.1-32.2l-33.7-0.1l24.2,11.2
		c-15,20.1-29.5,33-49.4,44.9c-8.2-11.1-12.7-16.3-21.5-24.3c13.6-5.9,21.2-11,31.9-20.7c4.7-4.3,6.8-6.8,10.1-11.1l-9.2,0
		c-10.3,0-16.4,0.2-22.6,0.8c0.8-6.2,1.1-11.5,1.1-22.8l0.2-73.1c0-11.1-0.2-16.2-1-22.6l32.2,0.1c-0.6,6.2-0.8,11.3-0.9,22.2
		l-0.2,68.8l123.4,0.3c13.3,0,19.9-0.2,25.5-1l-0.1,29c-7-0.8-14.4-1.3-25.3-1.3l-16.2,0c12.7,14,21.7,20.2,44.1,29.9
		c-8.4,9.2-12.4,14.3-20,26.2c-13.1-7.6-18.7-11.5-27.1-18.8c-9.6-8.2-16-14.8-24.8-25.9l22.8-11.4l-32.7-0.1L947.6,196.8z
		 M1008.6,114c0,7.2,0.2,12.9,0.6,17.9c-5.1-0.4-11.7-0.6-18.9-0.7l-83.4-0.2c-7.4,0-14,0.2-18.9,0.6c0.4-6,0.6-10.9,0.7-18.1
		l0.2-62c0-6.8-0.2-12.5-0.6-17.7c4.9,0.4,11.1,0.6,19.3,0.7l83.2,0.2c7.8,0,13.6-0.2,18.7-0.6c-0.4,5.5-0.6,10.7-0.7,17.9
		L1008.6,114z M918.9,111.5l58.9,0.1l0-7.2l-58.9-0.1L918.9,111.5z M918.9,87l58.9,0.1l0-7L918.9,80L918.9,87z M919,62.8l58.9,0.1
		l0-7L919,55.8L919,62.8z"/>
</g>
<g>
	<g>
		<path class="st2" d="M33.4,300.5c23.9-0.2,41.3-10.5,50-28.4c5.5,11.6,11.8,21,26.5,37.2c-16.7,21.8-48.3,29.4-48.3,29.4
			C51.5,331.6,33.4,300.5,33.4,300.5z"/>
		<path class="st3" d="M61.4,339c-10.3-7.3-28.3-38.3-28.3-38.4l0,0l0.4-0.2l0,0.4l0-0.4l-0.4,0.2c-0.1-0.1-0.1-0.3,0-0.4l0,0
			c0.1-0.1,0.2-0.2,0.4-0.2l0,0c23.8-0.2,41-10.4,49.6-28.2l0,0c0.1-0.1,0.2-0.2,0.4-0.2l0,0c0.2,0,0.3,0.1,0.4,0.2l0,0
			c5.4,11.6,11.8,20.9,26.5,37.1l0,0c0.1,0.2,0.1,0.4,0,0.5l0,0c-16.9,22-48.5,29.6-48.5,29.6l0,0c0,0-0.1,0-0.1,0l0,0
			C61.5,339.1,61.4,339.1,61.4,339L61.4,339z M44.1,316.7c5.7,8.6,12.7,18,17.6,21.6l0,0c1.2-0.3,8.6-2.2,17.6-6.4l0,0
			c9.9-4.6,21.8-11.8,30-22.5l0,0c-14.2-15.7-20.6-25.1-26-36.3l0,0c-8.8,17.4-25.9,27.5-49.2,27.9l0,0
			C35.4,302.9,39.3,309.5,44.1,316.7L44.1,316.7z"/>
	</g>
	<g>
		<path class="st2" d="M168.5,76.7c6.3,11.3,15.3,26.3,31.6,38.1c-30.7,3.5-76.1,34.6-76.1,89.3c0,49.4,40.6,90.8,90.7,90.8
			c51.5,0,90.8-42.5,90.8-91.1c-0.1-47.7-35.7-79.8-70.7-87.9c-7.8-1.8-12.7-3.8-20.6-8.1c-14.8-8.1-45-32.8-42.9-78.6
			c21.2,0,42,0,63.2,0c0.1,0,0,0.4,0,0.4s-0.3,0.1-0.6,0.2c-11.5,7.7-10.2,37.7,9.4,41.2c44.3,8.1,107.4,54.4,107.4,133.5
			c0,70.7-57.6,135.9-136.2,135.9c-75,0-135.7-60.9-135.7-136.3C78.8,140.6,122,92.5,168.5,76.7z"/>
		<path class="st3" d="M118.3,300.8c-24.6-24.7-39.9-58.9-39.9-96.7l0,0c0-63.7,43.3-112,90-127.8l0,0c0.2-0.1,0.4,0,0.5,0.2l0,0
			c6.3,11.3,15.2,26.3,31.5,38l0,0c0.1,0.1,0.2,0.3,0.2,0.5l0,0c0,0.2-0.2,0.3-0.4,0.3l0,0c-30.5,3.5-75.8,34.4-75.8,88.8l0,0
			c0,24.6,10.1,47.2,26.4,63.6l0,0c16.3,16.5,38.9,26.8,63.8,26.8l0,0c25.6,0,48.2-10.6,64.4-27.2l0,0
			c16.2-16.6,25.9-39.3,25.9-63.5l0,0c-0.1-47.5-35.5-79.4-70.4-87.5l0,0c-7.8-1.8-12.8-3.8-20.7-8.1l0,0
			c-14.4-7.9-43.2-31.3-43.2-74.5l0,0c0-1.5,0-2.9,0.1-4.5l0,0c0-0.2,0.2-0.4,0.4-0.4l0,0c21.2,0,42,0,63.2,0l0,0
			c0.1,0,0.4,0.1,0.4,0.2l0,0c0.1,0.1,0.1,0.2,0.1,0.3l0,0c0,0.3-0.1,0.4-0.1,0.4l0,0c0,0.1-0.1,0.2-0.3,0.2l0,0
			c0,0-0.3,0.1-0.5,0.2l0,0c-4.5,3.1-7.1,9.9-7.1,17.1l0,0c0,10.3,5.1,21.3,16.4,23.4l0,0c44.4,8.1,107.8,54.5,107.8,133.9l0,0
			c0,70.9-57.8,136.3-136.6,136.3l0,0C177,340.8,142.9,325.5,118.3,300.8L118.3,300.8z M79.2,204.1c0,37.6,15.1,71.5,39.6,96.1l0,0
			c24.5,24.6,58.3,39.7,95.7,39.7l0,0c39.1,0,73.1-16.2,97.2-41.3l0,0c24.2-25.1,38.5-58.9,38.5-94.2l0,0c0-78.8-63-125-107.1-133
			l0,0c-11.8-2.2-17.1-13.6-17.1-24.2l0,0c0-7.3,2.5-14.2,7.2-17.6l0,0c-20.7,0-41,0-61.7,0l0,0c-0.1,1.4-0.1,2.7-0.1,4l0,0
			c0,42.8,28.6,65.9,42.8,73.7l0,0c7.8,4.3,12.6,6.2,20.4,8.1l0,0c35.2,8.2,70.9,40.4,71,88.3l0,0c0,24.4-9.9,47.3-26.2,64.1l0,0
			c-16.3,16.8-39.1,27.5-65,27.5l0,0c-50.4,0-91.1-41.6-91.1-91.3l0,0c0-54.3,44.6-85.4,75.4-89.6l0,0
			c-15.7-11.6-24.5-26.2-30.7-37.3l0,0C122.1,93.1,79.2,141,79.2,204.1L79.2,204.1z"/>
	</g>
	<g>
		<path class="st2" d="M396.2,300.5c-23.9-0.2-41.3-10.5-50-28.4c-5.5,11.6-11.8,21-26.5,37.2c16.7,21.8,48.3,29.4,48.3,29.4
			C378.1,331.6,396.2,300.5,396.2,300.5z"/>
		<path class="st3" d="M367.9,339.1c0,0-31.7-7.6-48.5-29.6l0,0c-0.1-0.2-0.1-0.4,0-0.5l0,0c14.7-16.3,21-25.6,26.5-37.1l0,0
			c0.1-0.2,0.2-0.2,0.4-0.2l0,0c0.2,0,0.3,0.1,0.4,0.2l0,0c8.6,17.8,25.8,28,49.6,28.2l0,0l0,0.4l0-0.4c0.2,0,0.3,0.1,0.4,0.2l0,0
			c0.1,0.1,0.1,0.3,0,0.4l0,0c0,0-18,31.1-28.3,38.4l0,0c-0.1,0-0.2,0.1-0.2,0.1l0,0C367.9,339.1,367.9,339.1,367.9,339.1
			L367.9,339.1z M350.3,331.8c9.1,4.2,16.4,6.1,17.6,6.4l0,0c4.9-3.6,11.9-13,17.6-21.6l0,0c4.8-7.2,8.7-13.8,9.9-15.8l0,0
			c-23.3-0.4-40.5-10.5-49.2-27.9l0,0c-5.4,11.2-11.8,20.5-26,36.3l0,0C328.5,320,340.4,327.2,350.3,331.8L350.3,331.8z"/>
	</g>
</g>
</svg>
